<svg width="14" height="15" viewBox="0 0 14 15" fill="none" xmlns="http://www.w3.org/2000/svg">
<path d="M11.4 0.901337C12.1333 0.901337 12.7333 1.50134 12.7333 2.23467V3.70134C12.7333 4.23467 12.4 4.90134 12.0667 5.23467L9.2 7.768C8.8 8.10134 8.53333 8.768 8.53333 9.30134V12.168C8.53333 12.568 8.26666 13.1013 7.93333 13.3013L7 13.9013C6.13333 14.4347 4.93333 13.8347 4.93333 12.768V9.23467C4.93333 8.768 4.66666 8.168 4.4 7.83467L1.86666 5.168C1.53333 4.83467 1.26666 4.23467 1.26666 3.83467V2.30134C1.26666 1.50134 1.86666 0.901337 2.6 0.901337H8.6M6.28666 0.901337L3 6.168" stroke="white" stroke-width="1.5" stroke-miterlimit="10" stroke-linecap="round" stroke-linejoin="round"/>
</svg>
