<svg width="22" height="22" viewBox="0 0 22 22" fill="none" xmlns="http://www.w3.org/2000/svg">
<path d="M11 1.5C8.5 1.5 6.5 3.5 6.5 6V9C6.5 10.5 6 11.5 5.5 12L4.5 13.5C4 14.5 4.5 15.5 5.5 15.5H16.5C17.5 15.5 18 14.5 17.5 13.5L16.5 12C16 11.5 15.5 10.5 15.5 9V6C15.5 3.5 13.5 1.5 11 1.5Z" stroke="#8E6CEF" stroke-width="1.5" stroke-linecap="round" stroke-linejoin="round"/>
<path d="M13.5 17.5C13.5 18.9 12.4 20 11 20C9.6 20 8.5 18.9 8.5 17.5" stroke="#8E6CEF" stroke-width="1.5" stroke-linecap="round" stroke-linejoin="round"/>
<circle cx="16" cy="6" r="3" fill="#FF6B6B"/>
</svg>
